<svg xmlns="http://www.w3.org/2000/svg" width="259.93018" height="95.84841" viewBox="0 0 259.93018 95.84841">
  <defs>
    <style>
      .cls-1 {
        fill: #1d8bf7;
      }

      .cls-2 {
        fill: #363739;
      }
    </style>
  </defs>
  <g id="Layer_2" data-name="Layer 2">
    <g>
      <path class="cls-1" d="M45.97363,57.24292a1.31916,1.31916,0,1,1-1.32257-1.114A1.22894,1.22894,0,0,1,45.97363,57.24292Zm-5.907-4.43518a1.337,1.337,0,1,0,2.07129-.22424A1.49077,1.49077,0,0,0,40.06659,52.80774Zm6.64447-.23962c-.42889.383-.29242,1.23559.30481,1.90429.59717.66846,1.429.8999,1.85785.51685.42889-.38306.29242-1.2356-.30481-1.90418C47.97174,52.4165,47.13989,52.18506,46.71106,52.56812ZM70.13452,67.55933A34.35533,34.35533,0,0,1,44.3443,100.83691a9.27186,9.27186,0,0,1-8.88434-15.52,9.12249,9.12249,0,0,1,1.916-1.43505h9.07281a8.40389,8.40389,0,0,0,8.40393-8.40406,1.3727,1.3727,0,0,0-1.37256-1.37256H18.537a1.3727,1.3727,0,0,0-1.37256,1.37256,8.40389,8.40389,0,0,0,8.40393,8.40406h7.93512A11.649,11.649,0,0,0,33.306,99.6311a9.22125,9.22125,0,0,1-7.28278.87744,34.3481,34.3481,0,0,1-7.11547-62.859,9.48513,9.48513,0,0,0-2.33753,1.02234C13.84039,34.563,9.72424,32.03931,4.88849,30.601l-.04688-.01379A6.762,6.762,0,0,1,0,24.10352v-2.303a1.75747,1.75747,0,0,1,1.39868-1.72046L13.1236,17.6377a1.75736,1.75736,0,0,0,1.39892-1.72046v-1.5044a1.75745,1.75745,0,0,1,1.36841-1.71374L28.3255,9.297,30.321,8.84436a4.55677,4.55677,0,0,1,4.74012-3.55261,4.61464,4.61464,0,0,1,4.26245,4.44372,4.53229,4.53229,0,0,1-.34552,1.84766,2.37939,2.37939,0,0,0,.93011,2.82141A33.1531,33.1531,0,0,1,53.9541,38.00928a9.12138,9.12138,0,0,0-2.28662-.89588,34.48741,34.48741,0,0,1,17.4342,22.15686q.31632,1.26984.5376,2.574A34.34854,34.34854,0,0,1,70.13452,67.55933Zm-15.32709.34961A3.75915,3.75915,0,0,0,51.01392,64.478H34.48584L29.71161,69.2522a1.4907,1.4907,0,0,1-2.10834,0L22.8291,64.478H21.00317a3.75915,3.75915,0,0,0-3.79351,3.43091,3.67587,3.67587,0,0,0,3.6676,3.92016H51.13983A3.67587,3.67587,0,0,0,54.80743,67.90894Zm-26.51379-.94019a.51455.51455,0,0,0,.72766,0L31.51208,64.478H25.80286Zm26.52173-6.93127c0-3.79676-8.42011-13.023-18.80683-13.023s-18.80682,8.55774-18.80682,13.023a2.20154,2.20154,0,0,0,2.2016,2.20153H52.61377A2.20154,2.20154,0,0,0,54.81537,60.03748ZM35.69775,83.74683A17.08367,17.08367,0,0,1,33.1825,83.541c.13757.07763.28442.14282.41729.22656-.03448.03613-.06231.07763-.09631.11426h3.87244c.15838-.09205.30365-.20044.46789-.28443A17.14016,17.14016,0,0,1,35.69775,83.74683Z" transform="translate(0 -5.28245)"/>
      <g>
        <path class="cls-2" d="M118.51807,45.01465q0,7.30224-5.12061,11.26269-5.12109,3.96242-14.63623,3.96192H76.13281V10.62207H97.2041q19.75635,0,19.75684,12.00684a9.35909,9.35909,0,0,1-1.24561,4.75683,11.19557,11.19557,0,0,1-3.78857,3.78906,15.85035,15.85035,0,0,1-5.58789,2.21485v.13769a15.77374,15.77374,0,0,1,6.332,2.09375,12.36935,12.36935,0,0,1,4.32471,4.18653A9.90071,9.90071,0,0,1,118.51807,45.01465Zm-17.43848-19.791q0-4.60107-7.23145-4.60156H91.08008v9.376h4.32519a6.14175,6.14175,0,0,0,4.08252-1.332A4.28077,4.28077,0,0,0,101.07959,25.22363Zm1.55713,19.72266a4.51171,4.51171,0,0,0-1.55713-3.5293,5.96787,5.96787,0,0,0-4.11768-1.38476H91.08008V50.1709H96.0625a7.53589,7.53589,0,0,0,4.80957-1.40137A4.62064,4.62064,0,0,0,102.63672,44.94629Z" transform="translate(0 -5.28245)"/>
        <path class="cls-2" d="M125.09229,60.23926V10.62207h30.89794V22.31738H140.03955v7.23145h14.98193V41.24316H140.03955V48.544h17.09277V60.23926Z" transform="translate(0 -5.28245)"/>
        <path class="cls-2" d="M195.29639,60.23926l-2.17969-9.13477H178.30762l-2.35254,9.13477H159.79639l17.09277-49.61719h18.5459l16.08887,49.61719ZM185.88525,21.418h-.34619a24.176,24.176,0,0,1-.48437,2.7334q-.41529,1.90283-4.18653,16.331h9.48047l-3.46-13.49414A42.6051,42.6051,0,0,1,185.88525,21.418Z" transform="translate(0 -5.28245)"/>
        <path class="cls-2" d="M243.08008,60.23926l-3.70264-10.69141a13.29766,13.29766,0,0,0-2.78515-4.94824,5.0854,5.0854,0,0,0-3.71973-1.79883h-.58789V60.23926H217.3374V10.62207h19.86035q10.4143,0,15.37989,3.4082,4.96509,3.40869,4.96533,10.22461a12.93741,12.93741,0,0,1-2.88916,8.58106,16.466,16.466,0,0,1-8.59815,5.0166v.13867a12.01161,12.01161,0,0,1,5.2417,3.14844,19.48327,19.48327,0,0,1,3.7544,6.4707l4.87842,12.62891Zm-1.41895-33.874a5.19361,5.19361,0,0,0-1.52246-3.94433,6.72077,6.72077,0,0,0-4.77441-1.45313h-3.07959V32.31641h2.69873a6.85146,6.85146,0,0,0,4.84424-1.69532A5.55214,5.55214,0,0,0,241.66113,26.36523Z" transform="translate(0 -5.28245)"/>
        <path class="cls-1" d="M104.05273,86.70605a8.55614,8.55614,0,0,1-3.26855,7.18946q-3.2688,2.52831-9.3418,2.52832H76.99854V64.75293h13.4497q12.61084,0,12.61084,7.66406a5.97862,5.97862,0,0,1-.79492,3.03711,7.15241,7.15241,0,0,1-2.41846,2.418,10.10727,10.10727,0,0,1-3.56689,1.41309V79.374a10.05669,10.05669,0,0,1,4.0415,1.33594,7.89629,7.89629,0,0,1,2.76074,2.67285A6.31656,6.31656,0,0,1,104.05273,86.70605ZM92.92188,74.07324q0-2.937-4.61573-2.9375H86.53906v5.98535H89.2998a3.9198,3.9198,0,0,0,2.606-.85058A2.73193,2.73193,0,0,0,92.92188,74.07324Zm.99365,12.58887a2.87992,2.87992,0,0,0-.99365-2.25293,3.809,3.809,0,0,0-2.62793-.88281H86.53906v6.4707h3.18067a4.80471,4.80471,0,0,0,3.06982-.89453A2.949,2.949,0,0,0,93.91553,86.66211Z" transform="translate(0 -5.28245)"/>
        <path class="cls-1" d="M135.856,81.958q0,7.61865-3.47852,11.31836-3.47827,3.70019-10.72217,3.69922-6.75805,0-10.25879-3.69922-3.501-3.69873-3.50048-11.1416V64.75293h9.585V82.48828a8.19867,8.19867,0,0,0,1.1372,4.69238,3.72014,3.72014,0,0,0,3.25782,1.64551,3.76336,3.76336,0,0,0,3.25781-1.5459A7.78443,7.78443,0,0,0,126.249,82.709v-17.956H135.856Z" transform="translate(0 -5.28245)"/>
        <path class="cls-1" d="M158.16211,96.42383l-2.36279-6.82422a8.491,8.491,0,0,0-1.77784-3.1582A3.24658,3.24658,0,0,0,151.647,85.293h-.37549V96.42383H141.731V64.75293h12.67675q6.64747,0,9.8169,2.17578a7.39,7.39,0,0,1,3.16943,6.52637,8.25875,8.25875,0,0,1-1.84424,5.47754,10.51684,10.51684,0,0,1-5.48828,3.20215v.08789a7.67711,7.67711,0,0,1,3.34619,2.00976,12.43862,12.43862,0,0,1,2.396,4.12988l3.11426,8.06153Zm-.90527-21.62207a3.319,3.319,0,0,0-.97168-2.51758,4.29126,4.29126,0,0,0-3.04786-.92773h-1.96582v7.24414h1.72266a4.374,4.374,0,0,0,3.09229-1.082A3.54293,3.54293,0,0,0,157.25684,74.80176Z" transform="translate(0 -5.28245)"/>
        <path class="cls-1" d="M200.32324,94.34766a20.4017,20.4017,0,0,1-5.34472,1.82226,30.70519,30.70519,0,0,1-6.78028.80567q-8.3269,0-12.854-4.16309-4.52711-4.16162-4.52735-11.67188a17.3918,17.3918,0,0,1,2.28565-8.94433,14.84021,14.84021,0,0,1,6.438-5.94141,22.02985,22.02985,0,0,1,9.78418-2.03125,36.41256,36.41256,0,0,1,8.812,1.16992v8.32618a18.771,18.771,0,0,0-4.19629-1.37989,23.29325,23.29325,0,0,0-4.395-.38672,8.39519,8.39519,0,0,0-6.26123,2.36329,8.845,8.845,0,0,0-2.33008,6.49316,9.06574,9.06574,0,0,0,1.95459,6.18359,6.88331,6.88331,0,0,0,5.46631,2.23047,11.80783,11.80783,0,0,0,2.40723-.17675V84.51953H184.7085V77.29785h15.61474Z" transform="translate(0 -5.28245)"/>
        <path class="cls-1" d="M205.46924,96.42383V64.75293h19.72217v7.46484H215.00977V76.834h9.563v7.46485h-9.563V88.959h10.91015v7.46485Z" transform="translate(0 -5.28245)"/>
        <path class="cls-1" d="M246.85693,96.42383l-2.36279-6.82422a8.491,8.491,0,0,0-1.77783-3.1582A3.24662,3.24662,0,0,0,240.3418,85.293h-.37549V96.42383h-9.54053V64.75293h12.67676q6.64746,0,9.81689,2.17578a7.39,7.39,0,0,1,3.16944,6.52637,8.25881,8.25881,0,0,1-1.84424,5.47754,10.51684,10.51684,0,0,1-5.48828,3.20215v.08789a7.67717,7.67717,0,0,1,3.34619,2.00976,12.439,12.439,0,0,1,2.396,4.12988l3.11425,8.06153Zm-.90527-21.62207a3.319,3.319,0,0,0-.97168-2.51758,4.29123,4.29123,0,0,0-3.04785-.92773h-1.96582v7.24414H241.689a4.374,4.374,0,0,0,3.09229-1.082A3.54293,3.54293,0,0,0,245.95166,74.80176Z" transform="translate(0 -5.28245)"/>
      </g>
    </g>
  </g>
</svg>
