<svg xmlns="http://www.w3.org/2000/svg" width="166.80176" height="135.1426" viewBox="0 0 166.80176 135.1426">
  <defs>
    <style>
      .cls-1 {
        fill: #1d8bf7;
      }

      .cls-2 {
        fill: #363739;
      }
    </style>
  </defs>
  <g id="Layer_2" data-name="Layer 2">
    <g>
      <path class="cls-1" d="M95.49365,51.96047a1.31916,1.31916,0,1,1-1.32257-1.114A1.22894,1.22894,0,0,1,95.49365,51.96047Zm-5.907-4.43518A1.337,1.337,0,1,0,91.6579,47.301,1.49076,1.49076,0,0,0,89.58661,47.52529Zm6.64447-.23963c-.42889.38306-.29242,1.2356.30481,1.9043.59717.66846,1.429.8999,1.85785.51684.42889-.38305.29242-1.23559-.30481-1.90417C97.49176,47.13405,96.65991,46.90261,96.23108,47.28566Zm23.42346,14.99121A34.35535,34.35535,0,0,1,93.86432,95.55446a9.27186,9.27186,0,0,1-8.88434-15.52,9.12288,9.12288,0,0,1,1.916-1.43506h9.07281a8.40388,8.40388,0,0,0,8.40393-8.404,1.3727,1.3727,0,0,0-1.37256-1.37256H68.057a1.3727,1.3727,0,0,0-1.37256,1.37256,8.40388,8.40388,0,0,0,8.40393,8.404H83.0235a11.649,11.649,0,0,0-.19745,15.74927,9.22137,9.22137,0,0,1-7.28278.87744,34.34811,34.34811,0,0,1-7.11547-62.859,9.48551,9.48551,0,0,0-2.33753,1.02234c-2.72986-4.10888-6.846-6.63257-11.68176-8.07092l-.04688-.01379A6.762,6.762,0,0,1,49.52,18.82106v-2.303a1.75747,1.75747,0,0,1,1.39868-1.72045l11.72492-2.44239a1.75736,1.75736,0,0,0,1.39892-1.72046V9.13039A1.75745,1.75745,0,0,1,65.411,7.41664l12.43457-3.4021,1.99554-.45263A4.55676,4.55676,0,0,1,84.58118.0093,4.61464,4.61464,0,0,1,88.84363,4.453a4.53235,4.53235,0,0,1-.34552,1.84766,2.3794,2.3794,0,0,0,.93011,2.82141,33.1531,33.1531,0,0,1,14.0459,23.60473,9.12141,9.12141,0,0,0-2.28662-.89587,34.48741,34.48741,0,0,1,17.4342,22.15686q.31632,1.26984.5376,2.574A34.34851,34.34851,0,0,1,119.65454,62.27687Zm-15.32709.34961a3.75916,3.75916,0,0,0-3.79351-3.43091H84.00586l-4.77423,4.77417a1.49068,1.49068,0,0,1-2.10834,0l-4.77417-4.77417H70.52319a3.75916,3.75916,0,0,0-3.79351,3.43091,3.67587,3.67587,0,0,0,3.6676,3.92017h30.26257A3.67587,3.67587,0,0,0,104.32745,62.62648ZM77.81366,61.6863a.51457.51457,0,0,0,.72766,0l2.49078-2.49073H75.32288ZM104.33539,54.755c0-3.79675-8.42011-13.023-18.80683-13.023S66.72174,50.28981,66.72174,54.755a2.20155,2.20155,0,0,0,2.2016,2.20154h33.21045A2.20155,2.20155,0,0,0,104.33539,54.755ZM85.21777,78.46437a17.08392,17.08392,0,0,1-2.51526-.20581c.13758.07764.28443.14282.4173.22657-.03448.03613-.06231.07763-.09631.11425h3.87244c.15838-.092.30364-.20044.46789-.28442A17.14206,17.14206,0,0,1,85.21777,78.46437Z" transform="translate(-2.06543)"/>
      <g>
        <path class="cls-2" d="M20.00977,121.65138a5.67225,5.67225,0,0,1-2.168,4.76758,9.94089,9.94089,0,0,1-6.19629,1.67774H2.06543V107.09084h8.9209q8.36426,0,8.36426,5.083a3.96558,3.96558,0,0,1-.52735,2.01464,4.7425,4.7425,0,0,1-1.604,1.60352,6.712,6.712,0,0,1-2.36572.9375v.05859a6.6696,6.6696,0,0,1,2.68066.88672,5.23845,5.23845,0,0,1,1.83105,1.77149A4.19589,4.19589,0,0,1,20.00977,121.65138Zm-7.38282-8.3789q0-1.94824-3.06152-1.94824H8.39355V115.294h1.83106a2.59691,2.59691,0,0,0,1.72851-.56445A1.8105,1.8105,0,0,0,12.627,113.27248Zm.65918,8.34961A1.91027,1.91027,0,0,0,12.627,120.128a2.52646,2.52646,0,0,0-1.74316-.58594H8.39355v4.292h2.10938a3.19365,3.19365,0,0,0,2.03613-.59277A1.95788,1.95788,0,0,0,13.28613,121.62209Z" transform="translate(-2.06543)"/>
        <path class="cls-2" d="M27.59766,122.36916a2.11058,2.11058,0,0,0,1.11328,1.5166,5.03082,5.03082,0,0,0,2.51953.54883,10.37594,10.37594,0,0,0,4.13086-.835v3.95508a14.84674,14.84674,0,0,1-5.50781.9082,8.69052,8.69052,0,0,1-6.1084-2.00684,7.12912,7.12912,0,0,1-2.18262-5.52246,9.11138,9.11138,0,0,1,.95947-4.26269,6.9027,6.9027,0,0,1,2.8418-2.89258,8.39656,8.39656,0,0,1,4.15283-1.04785,8.171,8.171,0,0,1,3.98438.9082,6.0498,6.0498,0,0,1,2.5122,2.54883,8.17744,8.17744,0,0,1,.85694,3.83789v2.34375Zm3.75-3.2666q0-2.59278-1.86036-2.59278a1.57609,1.57609,0,0,0-1.30371.71,3.5502,3.5502,0,0,0-.61523,1.88282Z" transform="translate(-2.06543)"/>
        <path class="cls-2" d="M47.34375,128.0967v-2.28516h-.05859a4.90729,4.90729,0,0,1-4.57032,2.65137,4.37555,4.37555,0,0,1-3.32519-1.25977,4.67954,4.67954,0,0,1-1.20117-3.36914q0-4.42383,5.43457-5.127l3.7207-.4834a1.41889,1.41889,0,0,0-.65918-1.20117,3.00216,3.00216,0,0,0-1.77246-.46875,11.67434,11.67434,0,0,0-5.31738,1.43555v-4.05762a14.22535,14.22535,0,0,1,3.04687-.86426,17.732,17.732,0,0,1,3.13477-.33691q3.82325,0,5.54443,1.63379,1.72119,1.63329,1.72119,5.45605v8.27637ZM43.65234,122.999a1.38265,1.38265,0,0,0,.38819,1.01074,1.47989,1.47989,0,0,0,1.106.39551,1.96646,1.96646,0,0,0,1.58936-.73242,2.83761,2.83761,0,0,0,.60791-1.875v-.57129l-2.10937.293Q43.65235,121.78322,43.65234,122.999Z" transform="translate(-2.06543)"/>
        <path class="cls-2" d="M67.13379,118.44338a6.00126,6.00126,0,0,0-1.94824-.42481q-3.09083,0-3.09082,3.57422v6.50391H55.85449v-15h6.24024v2.63672h.05859a4.68238,4.68238,0,0,1,1.626-2.16016,4.17731,4.17731,0,0,1,2.46093-.74023,2.11422,2.11422,0,0,1,.89356.17578Z" transform="translate(-2.06543)"/>
        <path class="cls-1" d="M87.45117,121.65138a5.67223,5.67223,0,0,1-2.168,4.76758,9.94085,9.94085,0,0,1-6.19629,1.67774H69.50684V107.09084h8.92089q8.36427,0,8.36426,5.083a3.96557,3.96557,0,0,1-.52734,2.01464,4.74244,4.74244,0,0,1-1.604,1.60352,6.71183,6.71183,0,0,1-2.36572.9375v.05859a6.66959,6.66959,0,0,1,2.68067.88672,5.23862,5.23862,0,0,1,1.83105,1.77149A4.19588,4.19588,0,0,1,87.45117,121.65138Zm-7.38281-8.3789q0-1.94824-3.06152-1.94824H75.835V115.294H77.666a2.59693,2.59693,0,0,0,1.72851-.56445A1.8105,1.8105,0,0,0,80.06836,113.27248Zm.65918,8.34961a1.9103,1.9103,0,0,0-.65918-1.49414,2.52647,2.52647,0,0,0-1.74316-.58594H75.835v4.292h2.10938a3.19367,3.19367,0,0,0,2.03613-.59277A1.95788,1.95788,0,0,0,80.72754,121.62209Z" transform="translate(-2.06543)"/>
        <path class="cls-1" d="M99.21387,128.0967v-2.31446h-.0586a8.20962,8.20962,0,0,1-1.39892,1.56739,5.38292,5.38292,0,0,1-1.40625.80566,4.9723,4.9723,0,0,1-1.82373.30762,4.53688,4.53688,0,0,1-3.75-1.59668,7.38112,7.38112,0,0,1-1.28907-4.7168V113.0967h6.24024v8.584q0,2.21192,1.65527,2.21192a1.62,1.62,0,0,0,1.36963-.60059,2.7374,2.7374,0,0,0,.46143-1.69922V113.0967h6.24023v15Z" transform="translate(-2.06543)"/>
        <path class="cls-1" d="M119.72168,118.44338a6.00126,6.00126,0,0,0-1.94824-.42481q-3.09082,0-3.09082,3.57422v6.50391h-6.24024v-15h6.24024v2.63672h.05859a4.68238,4.68238,0,0,1,1.626-2.16016,4.17731,4.17731,0,0,1,2.46093-.74023,2.11422,2.11422,0,0,1,.89356.17578Z" transform="translate(-2.06543)"/>
        <path class="cls-1" d="M137.7832,126.002a8.52978,8.52978,0,0,1-2.71728,6.73145q-2.7173,2.40819-7.93213,2.40918a16.55067,16.55067,0,0,1-2.72461-.21973,7.50836,7.50836,0,0,1-1.88965-.498v-4.89258a9.42634,9.42634,0,0,0,4.43848,1.28907,5.20359,5.20359,0,0,0,3.35449-1.01075,3.26525,3.26525,0,0,0,1.25977-2.68066v-.92285h-.0586a4.84787,4.84787,0,0,1-1.853,1.64062,5.38326,5.38326,0,0,1-2.52685.61524,5.65931,5.65931,0,0,1-4.585-2.01465,8.40449,8.40449,0,0,1-1.68457-5.55859,9.94011,9.94011,0,0,1,.8789-4.292,6.70443,6.70443,0,0,1,2.44629-2.86425,6.28927,6.28927,0,0,1,3.457-1.00293,4.326,4.326,0,0,1,3.86719,1.91894h.0586V113.0967h6.21093Zm-6.1084-5.83008a3.36687,3.36687,0,0,0-.59326-2.09472,1.8841,1.8841,0,0,0-1.5747-.77637,1.93912,1.93912,0,0,0-1.68457.9375,4.426,4.426,0,0,0-.62989,2.50488,4.33452,4.33452,0,0,0,.52735,2.29981,1.82067,1.82067,0,0,0,1.66992.84961,1.93294,1.93294,0,0,0,1.67724-.87207,4.01013,4.01013,0,0,0,.60791-2.33594Z" transform="translate(-2.06543)"/>
        <path class="cls-1" d="M146.16211,122.36916a2.11058,2.11058,0,0,0,1.11328,1.5166,5.03085,5.03085,0,0,0,2.51953.54883,10.37594,10.37594,0,0,0,4.13086-.835v3.95508a14.84674,14.84674,0,0,1-5.50781.9082,8.69052,8.69052,0,0,1-6.1084-2.00684,7.12912,7.12912,0,0,1-2.18262-5.52246,9.11138,9.11138,0,0,1,.95948-4.26269,6.90262,6.90262,0,0,1,2.84179-2.89258,8.39659,8.39659,0,0,1,4.15283-1.04785,8.171,8.171,0,0,1,3.98438.9082,6.04977,6.04977,0,0,1,2.51221,2.54883,8.17744,8.17744,0,0,1,.85693,3.83789v2.34375Zm3.75-3.2666q0-2.59278-1.86035-2.59278a1.57606,1.57606,0,0,0-1.30371.71,3.55021,3.55021,0,0,0-.61524,1.88282Z" transform="translate(-2.06543)"/>
        <path class="cls-1" d="M168.86719,118.44338a6.00126,6.00126,0,0,0-1.94824-.42481q-3.09082,0-3.09083,3.57422v6.50391h-6.24023v-15h6.24023v2.63672h.0586a4.68238,4.68238,0,0,1,1.626-2.16016,4.17731,4.17731,0,0,1,2.46093-.74023,2.11422,2.11422,0,0,1,.89356.17578Z" transform="translate(-2.06543)"/>
      </g>
    </g>
  </g>
</svg>
